#N canvas 40 36 838 495 10;
#X obj 60 118 route /gyrosc/comp;
#X obj 171 404 print;
#X obj 233 174 bng 15 250 50 0 empty empty empty 17 7 0 10 -262144
-1 -1;
#X text 226 149 calibrate;
#X obj 209 209 f;
#X obj 189 325 -;
#X obj 217 406 send control;
#X obj 287 108 route /gyrosc/button 1;
#X obj 368 170 send btn1;
#X obj 305 194 route /gyrosc/button 2;
#X obj 322 277 send btn2;
#X obj 307 166 sel 1;
#X obj 303 135 route 1;
#X obj 306 250 sel 1;
#X obj 302 219 route 2;
#X obj 286 310 send btn2;
#X floatatom 256 332 5 0 0 0 - - -, f 5;
#X obj 51 79 dumpOSC 8000;
#X obj 180 43 route /gyrosc/button 9;
#X obj 204 119 route 9;
#X obj 92 249 t f f;
#X obj 192 258 + 0;
#X obj 345 414 print calibrate;
#X obj 110 197 + 0;
#X obj 164 371 expr if ($f1 < 0 \, $f1 + 360 \, $f1);
#X obj 54 349 route /gyrosc/button 4;
#X obj 88 407 s dspToggle;
#X obj 99 442 route /gyrosc;
#X obj 64 376 route 4;
#X obj 465 9 import mrpeach;
#X obj 217 72 unpackOSC 8000;
#X connect 0 0 20 0;
#X connect 0 0 27 0;
#X connect 2 0 4 0;
#X connect 4 0 21 0;
#X connect 4 0 22 0;
#X connect 5 0 16 0;
#X connect 5 0 24 0;
#X connect 7 0 12 0;
#X connect 9 0 14 0;
#X connect 11 0 8 0;
#X connect 12 0 11 0;
#X connect 13 0 15 0;
#X connect 14 0 13 0;
#X connect 17 0 0 0;
#X connect 17 0 7 0;
#X connect 17 0 9 0;
#X connect 17 0 18 0;
#X connect 17 0 25 0;
#X connect 18 0 19 0;
#X connect 19 0 2 0;
#X connect 20 0 5 0;
#X connect 20 1 4 1;
#X connect 21 0 5 1;
#X connect 24 0 6 0;
#X connect 25 0 28 0;
#X connect 28 0 26 0;
