#N canvas 553 27 682 695 10;
#N canvas 1421 435 450 323 crackling 1;
#N canvas 693 91 516 421 fire 0;
#X obj 45 50 lop~ 1;
#X obj 45 72 env~;
#X obj 45 95 moses 50;
#X obj 91 119 moses 51;
#X msg 91 144 bang;
#X obj 91 166 random 30;
#X obj 91 188 t f f;
#X msg 45 209 1 \, 0 \$1;
#X obj 45 231 line~;
#X obj 45 253 *~;
#X obj 45 275 *~;
#X obj 45 297 *~;
#X obj 118 211 * 500;
#X obj 118 233 + 1500;
#X obj 88 260 bp~ 2000 1;
#X obj 184 51 hip~ 1000;
#X obj 23 17 noise~;
#X obj 258 51 lop~ 1;
#X obj 258 73 *~ 10;
#X obj 258 95 *~;
#X obj 258 117 *~;
#X obj 258 139 *~ 600;
#X obj 243 173 *~;
#X obj 46 334 outlet~;
#X obj 370 48 bp~ 30 5;
#X obj 370 70 *~ 100;
#X obj 370 92 hip~ 25;
#X obj 370 114 clip~ -0.9 0.9;
#X obj 370 136 hip~ 25;
#X obj 370 158 *~ 0.6;
#X connect 0 0 1 0;
#X connect 1 0 2 0;
#X connect 2 1 3 0;
#X connect 3 0 4 0;
#X connect 4 0 5 0;
#X connect 5 0 6 0;
#X connect 6 0 7 0;
#X connect 6 1 12 0;
#X connect 7 0 8 0;
#X connect 8 0 9 0;
#X connect 8 0 9 1;
#X connect 9 0 10 0;
#X connect 9 0 10 1;
#X connect 10 0 11 0;
#X connect 11 0 23 0;
#X connect 12 0 13 0;
#X connect 13 0 14 1;
#X connect 14 0 11 1;
#X connect 15 0 22 0;
#X connect 16 0 0 0;
#X connect 16 0 14 0;
#X connect 16 0 15 0;
#X connect 16 0 17 0;
#X connect 16 0 24 0;
#X connect 17 0 18 0;
#X connect 18 0 19 0;
#X connect 18 0 19 1;
#X connect 19 0 20 0;
#X connect 19 0 20 1;
#X connect 20 0 21 0;
#X connect 21 0 22 1;
#X connect 22 0 23 0;
#X connect 24 0 25 0;
#X connect 25 0 26 0;
#X connect 26 0 27 0;
#X connect 27 0 28 0;
#X connect 28 0 29 0;
#X connect 29 0 23 0;
#X restore 74 87 pd fire;
#X obj 74 109 bp~ 600 0.2;
#N canvas 693 91 516 421 fire 0;
#X obj 45 50 lop~ 1;
#X obj 45 72 env~;
#X obj 45 95 moses 50;
#X obj 91 119 moses 51;
#X msg 91 144 bang;
#X obj 91 166 random 30;
#X obj 91 188 t f f;
#X msg 45 209 1 \, 0 \$1;
#X obj 45 231 line~;
#X obj 45 253 *~;
#X obj 45 275 *~;
#X obj 45 297 *~;
#X obj 118 211 * 500;
#X obj 118 233 + 1500;
#X obj 88 260 bp~ 2000 1;
#X obj 184 51 hip~ 1000;
#X obj 23 17 noise~;
#X obj 258 51 lop~ 1;
#X obj 258 73 *~ 10;
#X obj 258 95 *~;
#X obj 258 117 *~;
#X obj 258 139 *~ 600;
#X obj 243 173 *~;
#X obj 46 334 outlet~;
#X obj 370 48 bp~ 30 5;
#X obj 370 70 *~ 100;
#X obj 370 92 hip~ 25;
#X obj 370 114 clip~ -0.9 0.9;
#X obj 370 136 hip~ 25;
#X obj 370 158 *~ 0.6;
#X connect 0 0 1 0;
#X connect 1 0 2 0;
#X connect 2 1 3 0;
#X connect 3 0 4 0;
#X connect 4 0 5 0;
#X connect 5 0 6 0;
#X connect 6 0 7 0;
#X connect 6 1 12 0;
#X connect 7 0 8 0;
#X connect 8 0 9 0;
#X connect 8 0 9 1;
#X connect 9 0 10 0;
#X connect 9 0 10 1;
#X connect 10 0 11 0;
#X connect 11 0 23 0;
#X connect 12 0 13 0;
#X connect 13 0 14 1;
#X connect 14 0 11 1;
#X connect 15 0 22 0;
#X connect 16 0 0 0;
#X connect 16 0 14 0;
#X connect 16 0 15 0;
#X connect 16 0 17 0;
#X connect 16 0 24 0;
#X connect 17 0 18 0;
#X connect 18 0 19 0;
#X connect 18 0 19 1;
#X connect 19 0 20 0;
#X connect 19 0 20 1;
#X connect 20 0 21 0;
#X connect 21 0 22 1;
#X connect 22 0 23 0;
#X connect 24 0 25 0;
#X connect 25 0 26 0;
#X connect 26 0 27 0;
#X connect 27 0 28 0;
#X connect 28 0 29 0;
#X connect 29 0 23 0;
#X restore 152 87 pd fire;
#N canvas 693 91 516 421 fire 0;
#X obj 45 50 lop~ 1;
#X obj 45 72 env~;
#X obj 45 95 moses 50;
#X obj 91 119 moses 51;
#X msg 91 144 bang;
#X obj 91 166 random 30;
#X obj 91 188 t f f;
#X msg 45 209 1 \, 0 \$1;
#X obj 45 231 line~;
#X obj 45 253 *~;
#X obj 45 275 *~;
#X obj 45 297 *~;
#X obj 118 211 * 500;
#X obj 118 233 + 1500;
#X obj 88 260 bp~ 2000 1;
#X obj 184 51 hip~ 1000;
#X obj 23 17 noise~;
#X obj 258 51 lop~ 1;
#X obj 258 73 *~ 10;
#X obj 258 95 *~;
#X obj 258 117 *~;
#X obj 258 139 *~ 600;
#X obj 243 173 *~;
#X obj 46 334 outlet~;
#X obj 370 48 bp~ 30 5;
#X obj 370 70 *~ 100;
#X obj 370 92 hip~ 25;
#X obj 370 114 clip~ -0.9 0.9;
#X obj 370 136 hip~ 25;
#X obj 370 158 *~ 0.6;
#X connect 0 0 1 0;
#X connect 1 0 2 0;
#X connect 2 1 3 0;
#X connect 3 0 4 0;
#X connect 4 0 5 0;
#X connect 5 0 6 0;
#X connect 6 0 7 0;
#X connect 6 1 12 0;
#X connect 7 0 8 0;
#X connect 8 0 9 0;
#X connect 8 0 9 1;
#X connect 9 0 10 0;
#X connect 9 0 10 1;
#X connect 10 0 11 0;
#X connect 11 0 23 0;
#X connect 12 0 13 0;
#X connect 13 0 14 1;
#X connect 14 0 11 1;
#X connect 15 0 22 0;
#X connect 16 0 0 0;
#X connect 16 0 14 0;
#X connect 16 0 15 0;
#X connect 16 0 17 0;
#X connect 16 0 24 0;
#X connect 17 0 18 0;
#X connect 18 0 19 0;
#X connect 18 0 19 1;
#X connect 19 0 20 0;
#X connect 19 0 20 1;
#X connect 20 0 21 0;
#X connect 21 0 22 1;
#X connect 22 0 23 0;
#X connect 24 0 25 0;
#X connect 25 0 26 0;
#X connect 26 0 27 0;
#X connect 27 0 28 0;
#X connect 28 0 29 0;
#X connect 29 0 23 0;
#X restore 230 86 pd fire;
#N canvas 693 91 516 421 fire 0;
#X obj 45 50 lop~ 1;
#X obj 45 72 env~;
#X obj 45 95 moses 50;
#X obj 91 119 moses 51;
#X msg 91 144 bang;
#X obj 91 166 random 30;
#X obj 91 188 t f f;
#X msg 45 209 1 \, 0 \$1;
#X obj 45 231 line~;
#X obj 45 253 *~;
#X obj 45 275 *~;
#X obj 45 297 *~;
#X obj 118 211 * 500;
#X obj 118 233 + 1500;
#X obj 88 260 bp~ 2000 1;
#X obj 184 51 hip~ 1000;
#X obj 23 17 noise~;
#X obj 258 51 lop~ 1;
#X obj 258 73 *~ 10;
#X obj 258 95 *~;
#X obj 258 117 *~;
#X obj 258 139 *~ 600;
#X obj 243 173 *~;
#X obj 46 334 outlet~;
#X obj 370 48 bp~ 30 5;
#X obj 370 70 *~ 100;
#X obj 370 92 hip~ 25;
#X obj 370 114 clip~ -0.9 0.9;
#X obj 370 136 hip~ 25;
#X obj 370 158 *~ 0.6;
#X connect 0 0 1 0;
#X connect 1 0 2 0;
#X connect 2 1 3 0;
#X connect 3 0 4 0;
#X connect 4 0 5 0;
#X connect 5 0 6 0;
#X connect 6 0 7 0;
#X connect 6 1 12 0;
#X connect 7 0 8 0;
#X connect 8 0 9 0;
#X connect 8 0 9 1;
#X connect 9 0 10 0;
#X connect 9 0 10 1;
#X connect 10 0 11 0;
#X connect 11 0 23 0;
#X connect 12 0 13 0;
#X connect 13 0 14 1;
#X connect 14 0 11 1;
#X connect 15 0 22 0;
#X connect 16 0 0 0;
#X connect 16 0 14 0;
#X connect 16 0 15 0;
#X connect 16 0 17 0;
#X connect 16 0 24 0;
#X connect 17 0 18 0;
#X connect 18 0 19 0;
#X connect 18 0 19 1;
#X connect 19 0 20 0;
#X connect 19 0 20 1;
#X connect 20 0 21 0;
#X connect 21 0 22 1;
#X connect 22 0 23 0;
#X connect 24 0 25 0;
#X connect 25 0 26 0;
#X connect 26 0 27 0;
#X connect 27 0 28 0;
#X connect 28 0 29 0;
#X connect 29 0 23 0;
#X restore 310 86 pd fire;
#X obj 152 109 bp~ 1200 0.6;
#X obj 230 108 bp~ 2600 0.4;
#X obj 310 108 hip~ 1000;
#X obj 74 151 *~ 0.2;
#X obj 71 205 outlet~;
#X floatatom 137 153 5 0 0 0 - - -, f 5;
#X connect 0 0 1 0;
#X connect 1 0 8 0;
#X connect 2 0 5 0;
#X connect 3 0 6 0;
#X connect 4 0 7 0;
#X connect 5 0 8 0;
#X connect 6 0 8 0;
#X connect 7 0 8 0;
#X connect 8 0 9 0;
#X connect 10 0 8 1;
#X restore 65 99 pd crackling;
#N canvas 0 22 452 617 lapping 1;
#X obj 57 47 loadbang;
#X msg 57 69 1;
#X obj 57 91 metro 6;
#X obj 57 113 t b;
#X obj 57 135 random 8192;
#X obj 58 157 mod 4096;
#X obj 57 179 / 4096;
#X obj 57 201 * 9;
#X obj 57 223 exp;
#X obj 57 245 *;
#X obj 57 267 / 23000;
#X obj 121 156 > 4096;
#X obj 121 178 sel 0 1;
#X msg 121 200 -1;
#X msg 149 201 1;
#X obj 57 289 * 1600;
#X obj 57 311 + 800;
#X obj 57 333 pack 1 2.689;
#X obj 57 355 line~;
#X obj 57 377 osc~;
#X obj 55 495 *~;
#X obj 55 539 outlet~;
#X obj 116 376 fexpr~ $x1-$x1[-1];
#X obj 116 398 clip~ 0 1;
#X obj 116 420 lop~ 10;
#X obj 116 442 *~ 0.9;
#X obj 116 464 *~;
#X obj 55 517 *~ 20;
#X connect 0 0 1 0;
#X connect 1 0 2 0;
#X connect 2 0 3 0;
#X connect 3 0 4 0;
#X connect 4 0 5 0;
#X connect 4 0 11 0;
#X connect 5 0 6 0;
#X connect 6 0 7 0;
#X connect 7 0 8 0;
#X connect 8 0 9 0;
#X connect 9 0 10 0;
#X connect 10 0 15 0;
#X connect 11 0 12 0;
#X connect 12 0 13 0;
#X connect 12 1 14 0;
#X connect 13 0 9 1;
#X connect 14 0 9 1;
#X connect 15 0 16 0;
#X connect 16 0 17 0;
#X connect 17 0 18 0;
#X connect 18 0 19 0;
#X connect 18 0 22 0;
#X connect 19 0 20 0;
#X connect 20 0 27 0;
#X connect 22 0 23 0;
#X connect 23 0 24 0;
#X connect 24 0 25 0;
#X connect 25 0 26 0;
#X connect 25 0 26 1;
#X connect 26 0 20 1;
#X connect 27 0 21 0;
#X restore 208 97 pd lapping;
#X obj 166 76 hsl 128 15 0 127 0 0 empty empty empty -2 -8 0 10 -262144
-1 -1 919 1;
#X obj 216 374 dac~;
#X msg 235 209 1 \, 0 200;
#X obj 237 239 line~ 1;
#X obj 131 300 *~;
#X obj 168 299 *~;
#X obj 377 323 readsf~;
#X msg 376 292 1;
#X obj 338 187 bng 15 250 50 0 empty empty empty 17 7 0 10 -262144
-1 -1;
#X msg 426 272 open blackbird.aiff;
#X msg 376 208 0 \, 1 200;
#X obj 294 397 snapshot~;
#X obj 301 341 metro 100;
#X floatatom 293 438 5 0 0 0 - - -, f 5;
#X obj 294 285 tgl 15 0 empty empty empty 17 7 0 10 -262144 -1 -1 0
1;
#X text 238 20 l: lapping water c: crackling (fire) w: whistle of blackbird
l10 1c 8l 1c 5l 1c 19l 1c 25l 1c 35l 6w;
#X obj 114 411 metro 1000;
#X obj 108 381 tgl 15 0 empty empty empty 17 7 0 10 -262144 -1 -1 1
1;
#X msg 108 570 lapping;
#X msg 173 569 crackling;
#X msg 253 571 blackbird;
#X obj 160 627 print;
#X obj 107 507 sel 10 11 19 20 25 26 45 46 71 72 107;
#X msg 190 420 0;
#X floatatom 50 509 5 0 0 0 - - -, f 5;
#X obj 147 456 + 1;
#X obj 109 456 f 0;
#X obj 369 122 bng 15 250 50 0 empty empty empty 17 7 0 10 -262144
-1 -1;
#X msg 107 352 1;
#X obj 369 152 t b b 0;
#X msg 493 445 \; pd 0;
#X obj 467 78 receive control;
#X floatatom 470 126 5 0 0 0 - - -, f 5;
#X floatatom 509 230 5 0 0 0 - - -, f 5;
#X obj 426 157 r btn1;
#X obj 363 66 r btn2;
#X obj 461 205 expr max(min($f1 \, 60) \, -60) / 60;
#X obj 461 255 expr ($f1 + 1) * 64;
#X floatatom 614 251 5 0 0 0 - - -, f 5;
#X obj 480 168 expr if($f1 > 180 \, $f1 - 360 \, $f1);
#X obj 31 262 tgl 15 0 empty empty empty 17 7 0 10 -262144 -1 -1 1
1;
#X obj 31 218 r dspToggle;
#X msg 18 356 \; pd dsp \$1;
#X obj 26 417 print;
#X obj 63 156 expr~ $v1*$f2;
#X obj 206 155 expr~ $v1*(1-$f2);
#X obj 53 240 loadbang;
#X connect 0 0 46 0;
#X connect 1 0 47 0;
#X connect 2 0 46 1;
#X connect 2 0 47 1;
#X connect 4 0 5 0;
#X connect 5 0 6 1;
#X connect 5 0 7 1;
#X connect 6 0 3 0;
#X connect 6 0 3 1;
#X connect 7 0 3 1;
#X connect 8 0 13 0;
#X connect 8 0 3 1;
#X connect 8 0 3 0;
#X connect 9 0 8 0;
#X connect 10 0 4 0;
#X connect 10 0 9 0;
#X connect 11 0 8 0;
#X connect 12 0 5 0;
#X connect 13 0 15 0;
#X connect 14 0 13 0;
#X connect 16 0 14 0;
#X connect 18 0 28 0;
#X connect 19 0 18 0;
#X connect 20 0 23 0;
#X connect 21 0 23 0;
#X connect 22 0 23 0;
#X connect 24 0 21 0;
#X connect 24 1 20 0;
#X connect 24 2 21 0;
#X connect 24 3 20 0;
#X connect 24 4 21 0;
#X connect 24 5 20 0;
#X connect 24 6 21 0;
#X connect 24 7 20 0;
#X connect 24 8 21 0;
#X connect 24 9 20 0;
#X connect 24 10 22 0;
#X connect 25 0 28 1;
#X connect 27 0 28 1;
#X connect 28 0 24 0;
#X connect 28 0 26 0;
#X connect 28 0 27 0;
#X connect 29 0 31 0;
#X connect 30 0 19 0;
#X connect 30 0 42 0;
#X connect 31 0 10 0;
#X connect 31 1 11 0;
#X connect 31 2 19 0;
#X connect 33 0 34 0;
#X connect 34 0 41 0;
#X connect 36 0 12 0;
#X connect 37 0 29 0;
#X connect 38 0 35 0;
#X connect 38 0 39 0;
#X connect 39 0 2 0;
#X connect 41 0 38 0;
#X connect 41 0 40 0;
#X connect 42 0 44 0;
#X connect 43 0 42 0;
#X connect 44 0 45 0;
#X connect 46 0 6 0;
#X connect 47 0 7 0;
#X connect 48 0 30 0;
