#N canvas 284 22 901 499 10;
#X obj 308 211 hsl 128 15 0 127 0 0 empty empty empty -2 -8 0 10 -262144
-1 -1 12700 1;
#X obj 306 244 / 128;
#X msg 306 273 \$1 20;
#X obj 294 327 *~;
#X obj 190 95 hsl 128 15 0 127 0 0 empty empty empty -2 -8 0 10 -262144
-1 -1 12700 1;
#X obj 155 117 / 128;
#X obj 143 209 *~;
#X msg 155 146 \$1 20;
#X obj 156 170 line~;
#X obj 159 286 osc~ 440;
#X obj 167 337 *~ 0;
#X obj 190 311 tgl 15 0 empty empty empty 17 7 0 10 -262144 -1 -1 0
1;
#X text 215 311 test;
#X obj 55 48 noise~;
#X obj 56 81 *~ 1000;
#X obj 45 118 clip~ -0.99 0.99;
#X obj 152 28 loadbang;
#X obj 48 156 lop~ 40;
#X text 556 48 l: lapping water c: crackling (fire) w: whistle of blackbird
l10 1c 8l 1c 5l 1c 19l 1c 25l 1c 35l 6w;
#X obj 294 367 dac~;
#X obj 305 298 line~ 0;
#X obj 233 362 env~;
#X floatatom 236 392 5 0 0 0 - - -;
#X msg 154 55 0;
#X obj 454 124 noise~;
#X obj 457 338 *~ 1000;
#X obj 446 375 clip~ -0.99 0.99;
#X obj 455 152 lop~ 40;
#X obj 469 275 expr~ $v1*10+40;
#X obj 467 181 osc~ 0.5;
#X obj 469 210 expr~ $v1*0.2+0.1;
#X obj 452 303 vcf~ 1;
#X obj 189 209 expr~ $v1*(1-$v2);
#X obj 447 405 lop~ 1000;
#X obj 467 246 sig~ 10;
#X obj 63 188 noise~;
#X obj 69 241 expr~ v1*$v1*300;
#X obj 46 340 *~ 2;
#X floatatom 100 332 5 0 0 0 - - -;
#X obj 45 307 vcf~ 0.05;
#X obj 62 269 expr~ $v1*1000+40;
#X obj 63 210 lop~ 0.01;
#X connect 0 0 1 0;
#X connect 1 0 2 0;
#X connect 2 0 20 0;
#X connect 3 0 19 0;
#X connect 3 0 19 1;
#X connect 4 0 5 0;
#X connect 5 0 7 0;
#X connect 6 0 3 0;
#X connect 7 0 8 0;
#X connect 8 0 6 1;
#X connect 8 0 32 1;
#X connect 9 0 10 0;
#X connect 10 0 3 0;
#X connect 11 0 10 1;
#X connect 13 0 14 0;
#X connect 14 0 15 0;
#X connect 15 0 17 0;
#X connect 16 0 23 0;
#X connect 17 0 39 0;
#X connect 20 0 3 1;
#X connect 21 0 22 0;
#X connect 23 0 4 0;
#X connect 24 0 27 0;
#X connect 25 0 26 0;
#X connect 26 0 33 0;
#X connect 27 0 31 0;
#X connect 29 0 30 0;
#X connect 31 0 25 0;
#X connect 32 0 3 0;
#X connect 32 0 21 0;
#X connect 33 0 32 0;
#X connect 34 0 28 0;
#X connect 34 0 31 1;
#X connect 35 0 41 0;
#X connect 36 0 40 0;
#X connect 37 0 6 0;
#X connect 38 0 37 1;
#X connect 39 0 37 0;
#X connect 40 0 39 1;
#X connect 41 0 36 0;
